<svg width="330" height="42" viewBox="0 0 330 42" fill="none" xmlns="http://www.w3.org/2000/svg">
<rect x="0.5" y="-0.5" width="329" height="41" rx="6.5" transform="matrix(1 0 0 -1 0 41)" stroke="#252125"/>
<path d="M32.0673 14.436L28.5573 27H25.5873L23.2293 18.054L20.7633 27L17.8113 27.018L14.4273 14.436H17.1273L19.3413 24.192L21.8973 14.436H24.7053L27.1173 24.138L29.3493 14.436H32.0673ZM42.9827 21.798C42.9827 22.158 42.9587 22.482 42.9107 22.77H35.6207C35.6807 23.49 35.9327 24.054 36.3767 24.462C36.8207 24.87 37.3667 25.074 38.0147 25.074C38.9507 25.074 39.6167 24.672 40.0127 23.868H42.7307C42.4427 24.828 41.8907 25.62 41.0747 26.244C40.2587 26.856 39.2567 27.162 38.0687 27.162C37.1087 27.162 36.2447 26.952 35.4767 26.532C34.7207 26.1 34.1267 25.494 33.6947 24.714C33.2747 23.934 33.0647 23.034 33.0647 22.014C33.0647 20.982 33.2747 20.076 33.6947 19.296C34.1147 18.516 34.7027 17.916 35.4587 17.496C36.2147 17.076 37.0847 16.866 38.0687 16.866C39.0167 16.866 39.8627 17.07 40.6067 17.478C41.3627 17.886 41.9447 18.468 42.3527 19.224C42.7727 19.968 42.9827 20.826 42.9827 21.798ZM40.3727 21.078C40.3607 20.43 40.1267 19.914 39.6707 19.53C39.2147 19.134 38.6567 18.936 37.9967 18.936C37.3727 18.936 36.8447 19.128 36.4127 19.512C35.9927 19.884 35.7347 20.406 35.6387 21.078H40.3727ZM47.3421 13.68V27H44.8221V13.68H47.3421ZM49.1838 22.014C49.1838 20.982 49.3938 20.082 49.8138 19.314C50.2338 18.534 50.8158 17.934 51.5598 17.514C52.3038 17.082 53.1558 16.866 54.1158 16.866C55.3518 16.866 56.3718 17.178 57.1758 17.802C57.9918 18.414 58.5378 19.278 58.8138 20.394H56.0958C55.9518 19.962 55.7058 19.626 55.3578 19.386C55.0218 19.134 54.6018 19.008 54.0978 19.008C53.3778 19.008 52.8078 19.272 52.3878 19.8C51.9678 20.316 51.7578 21.054 51.7578 22.014C51.7578 22.962 51.9678 23.7 52.3878 24.228C52.8078 24.744 53.3778 25.002 54.0978 25.002C55.1178 25.002 55.7838 24.546 56.0958 23.634H58.8138C58.5378 24.714 57.9918 25.572 57.1758 26.208C56.3598 26.844 55.3398 27.162 54.1158 27.162C53.1558 27.162 52.3038 26.952 51.5598 26.532C50.8158 26.1 50.2338 25.5 49.8138 24.732C49.3938 23.952 49.1838 23.046 49.1838 22.014ZM65.088 27.162C64.128 27.162 63.264 26.952 62.496 26.532C61.728 26.1 61.122 25.494 60.678 24.714C60.246 23.934 60.03 23.034 60.03 22.014C60.03 20.994 60.252 20.094 60.696 19.314C61.152 18.534 61.77 17.934 62.55 17.514C63.33 17.082 64.2 16.866 65.16 16.866C66.12 16.866 66.99 17.082 67.77 17.514C68.55 17.934 69.162 18.534 69.606 19.314C70.062 20.094 70.29 20.994 70.29 22.014C70.29 23.034 70.056 23.934 69.588 24.714C69.132 25.494 68.508 26.1 67.716 26.532C66.936 26.952 66.06 27.162 65.088 27.162ZM65.088 24.966C65.544 24.966 65.97 24.858 66.366 24.642C66.774 24.414 67.098 24.078 67.338 23.634C67.578 23.19 67.698 22.65 67.698 22.014C67.698 21.066 67.446 20.34 66.942 19.836C66.45 19.32 65.844 19.062 65.124 19.062C64.404 19.062 63.798 19.32 63.306 19.836C62.826 20.34 62.586 21.066 62.586 22.014C62.586 22.962 62.82 23.694 63.288 24.21C63.768 24.714 64.368 24.966 65.088 24.966ZM84.5225 16.884C85.7465 16.884 86.7305 17.262 87.4745 18.018C88.2305 18.762 88.6085 19.806 88.6085 21.15V27H86.0885V21.492C86.0885 20.712 85.8905 20.118 85.4945 19.71C85.0985 19.29 84.5585 19.08 83.8745 19.08C83.1905 19.08 82.6445 19.29 82.2365 19.71C81.8405 20.118 81.6425 20.712 81.6425 21.492V27H79.1225V21.492C79.1225 20.712 78.9245 20.118 78.5285 19.71C78.1325 19.29 77.5925 19.08 76.9085 19.08C76.2125 19.08 75.6605 19.29 75.2525 19.71C74.8565 20.118 74.6585 20.712 74.6585 21.492V27H72.1385V17.028H74.6585V18.234C74.9825 17.814 75.3965 17.484 75.9005 17.244C76.4165 17.004 76.9805 16.884 77.5925 16.884C78.3725 16.884 79.0685 17.052 79.6805 17.388C80.2925 17.712 80.7665 18.18 81.1025 18.792C81.4265 18.216 81.8945 17.754 82.5065 17.406C83.1305 17.058 83.8025 16.884 84.5225 16.884ZM100.27 21.798C100.27 22.158 100.246 22.482 100.198 22.77H92.9078C92.9678 23.49 93.2198 24.054 93.6638 24.462C94.1078 24.87 94.6538 25.074 95.3018 25.074C96.2378 25.074 96.9038 24.672 97.2998 23.868H100.018C99.7298 24.828 99.1778 25.62 98.3618 26.244C97.5458 26.856 96.5438 27.162 95.3558 27.162C94.3958 27.162 93.5318 26.952 92.7638 26.532C92.0078 26.1 91.4138 25.494 90.9818 24.714C90.5618 23.934 90.3518 23.034 90.3518 22.014C90.3518 20.982 90.5618 20.076 90.9818 19.296C91.4018 18.516 91.9898 17.916 92.7458 17.496C93.5018 17.076 94.3718 16.866 95.3558 16.866C96.3038 16.866 97.1498 17.07 97.8938 17.478C98.6498 17.886 99.2318 18.468 99.6398 19.224C100.06 19.968 100.27 20.826 100.27 21.798ZM97.6598 21.078C97.6478 20.43 97.4138 19.914 96.9578 19.53C96.5018 19.134 95.9438 18.936 95.2838 18.936C94.6598 18.936 94.1318 19.128 93.6998 19.512C93.2798 19.884 93.0218 20.406 92.9258 21.078H97.6598ZM109.332 19.098V23.922C109.332 24.258 109.41 24.504 109.566 24.66C109.734 24.804 110.01 24.876 110.394 24.876H111.564V27H109.98C107.856 27 106.794 25.968 106.794 23.904V19.098H105.606V17.028H106.794V14.562H109.332V17.028H111.564V19.098H109.332ZM117.805 27.162C116.845 27.162 115.981 26.952 115.213 26.532C114.445 26.1 113.839 25.494 113.395 24.714C112.963 23.934 112.747 23.034 112.747 22.014C112.747 20.994 112.969 20.094 113.413 19.314C113.869 18.534 114.487 17.934 115.267 17.514C116.047 17.082 116.917 16.866 117.877 16.866C118.837 16.866 119.707 17.082 120.487 17.514C121.267 17.934 121.879 18.534 122.323 19.314C122.779 20.094 123.007 20.994 123.007 22.014C123.007 23.034 122.773 23.934 122.305 24.714C121.849 25.494 121.225 26.1 120.433 26.532C119.653 26.952 118.777 27.162 117.805 27.162ZM117.805 24.966C118.261 24.966 118.687 24.858 119.083 24.642C119.491 24.414 119.815 24.078 120.055 23.634C120.295 23.19 120.415 22.65 120.415 22.014C120.415 21.066 120.163 20.34 119.659 19.836C119.167 19.32 118.561 19.062 117.841 19.062C117.121 19.062 116.515 19.32 116.023 19.836C115.543 20.34 115.303 21.066 115.303 22.014C115.303 22.962 115.537 23.694 116.005 24.21C116.485 24.714 117.085 24.966 117.805 24.966ZM133.482 27.126C132.606 27.126 131.814 26.976 131.106 26.676C130.41 26.376 129.858 25.944 129.45 25.38C129.042 24.816 128.832 24.15 128.82 23.382H131.52C131.556 23.898 131.736 24.306 132.06 24.606C132.396 24.906 132.852 25.056 133.428 25.056C134.016 25.056 134.478 24.918 134.814 24.642C135.15 24.354 135.318 23.982 135.318 23.526C135.318 23.154 135.204 22.848 134.976 22.608C134.748 22.368 134.46 22.182 134.112 22.05C133.776 21.906 133.308 21.75 132.708 21.582C131.892 21.342 131.226 21.108 130.71 20.88C130.206 20.64 129.768 20.286 129.396 19.818C129.036 19.338 128.856 18.702 128.856 17.91C128.856 17.166 129.042 16.518 129.414 15.966C129.786 15.414 130.308 14.994 130.98 14.706C131.652 14.406 132.42 14.256 133.284 14.256C134.58 14.256 135.63 14.574 136.434 15.21C137.25 15.834 137.7 16.71 137.784 17.838H135.012C134.988 17.406 134.802 17.052 134.454 16.776C134.118 16.488 133.668 16.344 133.104 16.344C132.612 16.344 132.216 16.47 131.916 16.722C131.628 16.974 131.484 17.34 131.484 17.82C131.484 18.156 131.592 18.438 131.808 18.666C132.036 18.882 132.312 19.062 132.636 19.206C132.972 19.338 133.44 19.494 134.04 19.674C134.856 19.914 135.522 20.154 136.038 20.394C136.554 20.634 136.998 20.994 137.37 21.474C137.742 21.954 137.928 22.584 137.928 23.364C137.928 24.036 137.754 24.66 137.406 25.236C137.058 25.812 136.548 26.274 135.876 26.622C135.204 26.958 134.406 27.126 133.482 27.126ZM142.633 18.468C142.957 18.012 143.401 17.634 143.965 17.334C144.541 17.022 145.195 16.866 145.927 16.866C146.779 16.866 147.547 17.076 148.231 17.496C148.927 17.916 149.473 18.516 149.869 19.296C150.277 20.064 150.481 20.958 150.481 21.978C150.481 22.998 150.277 23.904 149.869 24.696C149.473 25.476 148.927 26.082 148.231 26.514C147.547 26.946 146.779 27.162 145.927 27.162C145.195 27.162 144.547 27.012 143.983 26.712C143.431 26.412 142.981 26.034 142.633 25.578V31.752H140.113V17.028H142.633V18.468ZM147.907 21.978C147.907 21.378 147.781 20.862 147.529 20.43C147.289 19.986 146.965 19.65 146.557 19.422C146.161 19.194 145.729 19.08 145.261 19.08C144.805 19.08 144.373 19.2 143.965 19.44C143.569 19.668 143.245 20.004 142.993 20.448C142.753 20.892 142.633 21.414 142.633 22.014C142.633 22.614 142.753 23.136 142.993 23.58C143.245 24.024 143.569 24.366 143.965 24.606C144.373 24.834 144.805 24.948 145.261 24.948C145.729 24.948 146.161 24.828 146.557 24.588C146.965 24.348 147.289 24.006 147.529 23.562C147.781 23.118 147.907 22.59 147.907 21.978ZM156.74 27.162C155.78 27.162 154.916 26.952 154.148 26.532C153.38 26.1 152.774 25.494 152.33 24.714C151.898 23.934 151.682 23.034 151.682 22.014C151.682 20.994 151.904 20.094 152.348 19.314C152.804 18.534 153.422 17.934 154.202 17.514C154.982 17.082 155.852 16.866 156.812 16.866C157.772 16.866 158.642 17.082 159.422 17.514C160.202 17.934 160.814 18.534 161.258 19.314C161.714 20.094 161.942 20.994 161.942 22.014C161.942 23.034 161.708 23.934 161.24 24.714C160.784 25.494 160.16 26.1 159.368 26.532C158.588 26.952 157.712 27.162 156.74 27.162ZM156.74 24.966C157.196 24.966 157.622 24.858 158.018 24.642C158.426 24.414 158.75 24.078 158.99 23.634C159.23 23.19 159.35 22.65 159.35 22.014C159.35 21.066 159.098 20.34 158.594 19.836C158.102 19.32 157.496 19.062 156.776 19.062C156.056 19.062 155.45 19.32 154.958 19.836C154.478 20.34 154.238 21.066 154.238 22.014C154.238 22.962 154.472 23.694 154.94 24.21C155.42 24.714 156.02 24.966 156.74 24.966ZM166.311 18.576C166.635 18.048 167.055 17.634 167.571 17.334C168.099 17.034 168.699 16.884 169.371 16.884V19.53H168.705C167.913 19.53 167.313 19.716 166.905 20.088C166.509 20.46 166.311 21.108 166.311 22.032V27H163.791V17.028H166.311V18.576ZM174.002 19.098V23.922C174.002 24.258 174.08 24.504 174.236 24.66C174.404 24.804 174.68 24.876 175.064 24.876H176.234V27H174.65C172.526 27 171.464 25.968 171.464 23.904V19.098H170.276V17.028H171.464V14.562H174.002V17.028H176.234V19.098H174.002ZM186.674 27.126C185.798 27.126 185.006 26.976 184.298 26.676C183.602 26.376 183.05 25.944 182.642 25.38C182.234 24.816 182.024 24.15 182.012 23.382H184.712C184.748 23.898 184.928 24.306 185.252 24.606C185.588 24.906 186.044 25.056 186.62 25.056C187.208 25.056 187.67 24.918 188.006 24.642C188.342 24.354 188.51 23.982 188.51 23.526C188.51 23.154 188.396 22.848 188.168 22.608C187.94 22.368 187.652 22.182 187.304 22.05C186.968 21.906 186.5 21.75 185.9 21.582C185.084 21.342 184.418 21.108 183.902 20.88C183.398 20.64 182.96 20.286 182.588 19.818C182.228 19.338 182.048 18.702 182.048 17.91C182.048 17.166 182.234 16.518 182.606 15.966C182.978 15.414 183.5 14.994 184.172 14.706C184.844 14.406 185.612 14.256 186.476 14.256C187.772 14.256 188.822 14.574 189.626 15.21C190.442 15.834 190.892 16.71 190.976 17.838H188.204C188.18 17.406 187.994 17.052 187.646 16.776C187.31 16.488 186.86 16.344 186.296 16.344C185.804 16.344 185.408 16.47 185.108 16.722C184.82 16.974 184.676 17.34 184.676 17.82C184.676 18.156 184.784 18.438 185 18.666C185.228 18.882 185.504 19.062 185.828 19.206C186.164 19.338 186.632 19.494 187.232 19.674C188.048 19.914 188.714 20.154 189.23 20.394C189.746 20.634 190.19 20.994 190.562 21.474C190.934 21.954 191.12 22.584 191.12 23.364C191.12 24.036 190.946 24.66 190.598 25.236C190.25 25.812 189.74 26.274 189.068 26.622C188.396 26.958 187.598 27.126 186.674 27.126ZM192.656 22.014C192.656 20.982 192.867 20.082 193.287 19.314C193.707 18.534 194.289 17.934 195.033 17.514C195.777 17.082 196.629 16.866 197.589 16.866C198.825 16.866 199.845 17.178 200.649 17.802C201.465 18.414 202.011 19.278 202.287 20.394H199.569C199.425 19.962 199.179 19.626 198.831 19.386C198.495 19.134 198.075 19.008 197.571 19.008C196.851 19.008 196.281 19.272 195.861 19.8C195.441 20.316 195.231 21.054 195.231 22.014C195.231 22.962 195.441 23.7 195.861 24.228C196.281 24.744 196.851 25.002 197.571 25.002C198.591 25.002 199.257 24.546 199.569 23.634H202.287C202.011 24.714 201.465 25.572 200.649 26.208C199.833 26.844 198.813 27.162 197.589 27.162C196.629 27.162 195.777 26.952 195.033 26.532C194.289 26.1 193.707 25.5 193.287 24.732C192.867 23.952 192.656 23.046 192.656 22.014ZM209.749 16.884C210.505 16.884 211.177 17.052 211.765 17.388C212.353 17.712 212.809 18.198 213.133 18.846C213.469 19.482 213.637 20.25 213.637 21.15V27H211.117V21.492C211.117 20.7 210.919 20.094 210.523 19.674C210.127 19.242 209.587 19.026 208.903 19.026C208.207 19.026 207.655 19.242 207.247 19.674C206.851 20.094 206.653 20.7 206.653 21.492V27H204.133V13.68H206.653V18.27C206.977 17.838 207.409 17.502 207.949 17.262C208.489 17.01 209.089 16.884 209.749 16.884ZM225.303 21.798C225.303 22.158 225.279 22.482 225.231 22.77H217.941C218.001 23.49 218.253 24.054 218.697 24.462C219.141 24.87 219.687 25.074 220.335 25.074C221.271 25.074 221.937 24.672 222.333 23.868H225.051C224.763 24.828 224.211 25.62 223.395 26.244C222.579 26.856 221.577 27.162 220.389 27.162C219.429 27.162 218.565 26.952 217.797 26.532C217.041 26.1 216.447 25.494 216.015 24.714C215.595 23.934 215.385 23.034 215.385 22.014C215.385 20.982 215.595 20.076 216.015 19.296C216.435 18.516 217.023 17.916 217.779 17.496C218.535 17.076 219.405 16.866 220.389 16.866C221.337 16.866 222.183 17.07 222.927 17.478C223.683 17.886 224.265 18.468 224.673 19.224C225.093 19.968 225.303 20.826 225.303 21.798ZM222.693 21.078C222.681 20.43 222.447 19.914 221.991 19.53C221.535 19.134 220.977 18.936 220.317 18.936C219.693 18.936 219.165 19.128 218.733 19.512C218.313 19.884 218.055 20.406 217.959 21.078H222.693ZM226.494 21.978C226.494 20.97 226.692 20.076 227.088 19.296C227.496 18.516 228.048 17.916 228.744 17.496C229.44 17.076 230.214 16.866 231.066 16.866C231.714 16.866 232.332 17.01 232.92 17.298C233.508 17.574 233.976 17.946 234.324 18.414V13.68H236.88V27H234.324V25.524C234.012 26.016 233.574 26.412 233.01 26.712C232.446 27.012 231.792 27.162 231.048 27.162C230.208 27.162 229.44 26.946 228.744 26.514C228.048 26.082 227.496 25.476 227.088 24.696C226.692 23.904 226.494 22.998 226.494 21.978ZM234.342 22.014C234.342 21.402 234.222 20.88 233.982 20.448C233.742 20.004 233.418 19.668 233.01 19.44C232.602 19.2 232.164 19.08 231.696 19.08C231.228 19.08 230.796 19.194 230.4 19.422C230.004 19.65 229.68 19.986 229.428 20.43C229.188 20.862 229.068 21.378 229.068 21.978C229.068 22.578 229.188 23.106 229.428 23.562C229.68 24.006 230.004 24.348 230.4 24.588C230.808 24.828 231.24 24.948 231.696 24.948C232.164 24.948 232.602 24.834 233.01 24.606C233.418 24.366 233.742 24.03 233.982 23.598C234.222 23.154 234.342 22.626 234.342 22.014ZM248.756 17.028V27H246.218V25.74C245.894 26.172 245.468 26.514 244.94 26.766C244.424 27.006 243.86 27.126 243.248 27.126C242.468 27.126 241.778 26.964 241.178 26.64C240.578 26.304 240.104 25.818 239.756 25.182C239.42 24.534 239.252 23.766 239.252 22.878V17.028H241.772V22.518C241.772 23.31 241.97 23.922 242.366 24.354C242.762 24.774 243.302 24.984 243.986 24.984C244.682 24.984 245.228 24.774 245.624 24.354C246.02 23.922 246.218 23.31 246.218 22.518V17.028H248.756ZM253.762 13.68V27H251.242V13.68H253.762ZM265.522 21.798C265.522 22.158 265.498 22.482 265.45 22.77H258.16C258.22 23.49 258.472 24.054 258.916 24.462C259.36 24.87 259.906 25.074 260.554 25.074C261.49 25.074 262.156 24.672 262.552 23.868H265.27C264.982 24.828 264.43 25.62 263.614 26.244C262.798 26.856 261.796 27.162 260.608 27.162C259.648 27.162 258.784 26.952 258.016 26.532C257.26 26.1 256.666 25.494 256.234 24.714C255.814 23.934 255.604 23.034 255.604 22.014C255.604 20.982 255.814 20.076 256.234 19.296C256.654 18.516 257.242 17.916 257.998 17.496C258.754 17.076 259.624 16.866 260.608 16.866C261.556 16.866 262.402 17.07 263.146 17.478C263.902 17.886 264.484 18.468 264.892 19.224C265.312 19.968 265.522 20.826 265.522 21.798ZM262.912 21.078C262.9 20.43 262.666 19.914 262.21 19.53C261.754 19.134 261.196 18.936 260.536 18.936C259.912 18.936 259.384 19.128 258.952 19.512C258.532 19.884 258.274 20.406 258.178 21.078H262.912ZM269.881 18.576C270.205 18.048 270.625 17.634 271.141 17.334C271.669 17.034 272.269 16.884 272.941 16.884V19.53H272.275C271.483 19.53 270.883 19.716 270.475 20.088C270.079 20.46 269.881 21.108 269.881 22.032V27H267.361V17.028H269.881V18.576ZM286.632 24.606H281.628L280.8 27H278.154L282.672 14.418H285.606L290.124 27H287.46L286.632 24.606ZM285.948 22.59L284.13 17.334L282.312 22.59H285.948ZM294.332 18.468C294.656 18.012 295.1 17.634 295.664 17.334C296.24 17.022 296.894 16.866 297.626 16.866C298.478 16.866 299.246 17.076 299.93 17.496C300.626 17.916 301.172 18.516 301.568 19.296C301.976 20.064 302.18 20.958 302.18 21.978C302.18 22.998 301.976 23.904 301.568 24.696C301.172 25.476 300.626 26.082 299.93 26.514C299.246 26.946 298.478 27.162 297.626 27.162C296.894 27.162 296.246 27.012 295.682 26.712C295.13 26.412 294.68 26.034 294.332 25.578V31.752H291.812V17.028H294.332V18.468ZM299.606 21.978C299.606 21.378 299.48 20.862 299.228 20.43C298.988 19.986 298.664 19.65 298.256 19.422C297.86 19.194 297.428 19.08 296.96 19.08C296.504 19.08 296.072 19.2 295.664 19.44C295.268 19.668 294.944 20.004 294.692 20.448C294.452 20.892 294.332 21.414 294.332 22.014C294.332 22.614 294.452 23.136 294.692 23.58C294.944 24.024 295.268 24.366 295.664 24.606C296.072 24.834 296.504 24.948 296.96 24.948C297.428 24.948 297.86 24.828 298.256 24.588C298.664 24.348 298.988 24.006 299.228 23.562C299.48 23.118 299.606 22.59 299.606 21.978ZM306.532 18.468C306.856 18.012 307.3 17.634 307.864 17.334C308.44 17.022 309.094 16.866 309.826 16.866C310.678 16.866 311.446 17.076 312.13 17.496C312.826 17.916 313.372 18.516 313.768 19.296C314.176 20.064 314.38 20.958 314.38 21.978C314.38 22.998 314.176 23.904 313.768 24.696C313.372 25.476 312.826 26.082 312.13 26.514C311.446 26.946 310.678 27.162 309.826 27.162C309.094 27.162 308.446 27.012 307.882 26.712C307.33 26.412 306.88 26.034 306.532 25.578V31.752H304.012V17.028H306.532V18.468ZM311.806 21.978C311.806 21.378 311.68 20.862 311.428 20.43C311.188 19.986 310.864 19.65 310.456 19.422C310.06 19.194 309.628 19.08 309.16 19.08C308.704 19.08 308.272 19.2 307.864 19.44C307.468 19.668 307.144 20.004 306.892 20.448C306.652 20.892 306.532 21.414 306.532 22.014C306.532 22.614 306.652 23.136 306.892 23.58C307.144 24.024 307.468 24.366 307.864 24.606C308.272 24.834 308.704 24.948 309.16 24.948C309.628 24.948 310.06 24.828 310.456 24.588C310.864 24.348 311.188 24.006 311.428 23.562C311.68 23.118 311.806 22.59 311.806 21.978Z" fill="#3A405A"/>
</svg>
